<svg width="32px" height="32px" viewBox="0 0 2.56 2.56" id="Layer_1" data-name="Layer 1" xmlns="http://www.w3.org/2000/svg"><path d="M1.4 0.385c0.152 0.055 0.448 0.206 0.433 0.551a0.04 0.04 0 0 0 0.01 0.028l0.205 0.227a0.08 0.08 0 0 1 0 0.106l-0.076 0.086a0.2 0.2 0 0 0 -0.049 0.129L1.92 1.72a0.12 0.12 0 0 1 -0.12 0.12h-0.085a0.16 0.16 0 0 0 -0.16 0.16v0.17a0.04 0.04 0 0 1 -0.04 0.04H1.017a0.04 0.04 0 0 1 -0.04 -0.04V1.642a0.08 0.08 0 0 0 -0.046 -0.072C0.79 1.501 0.375 1.256 0.523 0.8a0.618 0.618 0 0 1 0.212 -0.31" fill="none" stroke="#000000" stroke-linecap="round" stroke-miterlimit="10" stroke-width="0.12"/><path d="M0.888 0.88c0 -0.135 -0.083 -0.248 -0.128 -0.332A0.322 0.322 0 0 1 0.72 0.4c0 -0.178 0.162 -0.32 0.34 -0.32" fill="none" stroke="#000000" stroke-miterlimit="10" stroke-width="0.12"/><path d="M1.234 0.88c0 -0.135 0.084 -0.248 0.128 -0.332A0.32 0.32 0 0 0 1.4 0.4c0 -0.178 -0.16 -0.32 -0.339 -0.32" fill="none" stroke="#000000" stroke-miterlimit="10" stroke-width="0.12"/><path x="20.51" y="21.84" width="12.36" height="4.04" rx="1.39" fill="none" stroke="#000000" stroke-miterlimit="10" stroke-width="0.12" d="M0.876 0.874H1.259A0.056 0.056 0 0 1 1.315 0.929V0.98A0.056 0.056 0 0 1 1.259 1.035H0.876A0.056 0.056 0 0 1 0.82 0.98V0.929A0.056 0.056 0 0 1 0.876 0.874z"/><path d="M1.192 1.035V1.12c0 0.051 -0.048 0.092 -0.124 0.092 -0.084 0 -0.124 -0.04 -0.124 -0.092v-0.085" fill="none" stroke="#000000" stroke-miterlimit="10" stroke-width="0.12"/></svg>