<svg width="64" height="64" viewBox="0 0 64 64" fill="none" xmlns="http://www.w3.org/2000/svg">
<path d="M42 25H60" stroke="#143CFF" stroke-width="2"/>
<path d="M48 21H54" stroke="#143CFF" stroke-width="2"/>
<path d="M45 23H57" stroke="#143CFF" stroke-width="2"/>
<path d="M45 27H57" stroke="#143CFF" stroke-width="2"/>
<path d="M50 17H52" stroke="#143CFF" stroke-width="2"/>
<path d="M49 19H53" stroke="#143CFF" stroke-width="2"/>
<path d="M49 31H53" stroke="#143CFF" stroke-width="2"/>
<path d="M50 33H52" stroke="#143CFF" stroke-width="2"/>
<path d="M48 29H54" stroke="#143CFF" stroke-width="2"/>
<path d="M12 36H22" stroke="#143CFF" stroke-width="2"/>
<path d="M16 32H18" stroke="#143CFF" stroke-width="2"/>
<path d="M14 34H20" stroke="#143CFF" stroke-width="2"/>
<path d="M14 38H20" stroke="#143CFF" stroke-width="2"/>
<path d="M16 40H18" stroke="#143CFF" stroke-width="2"/>
<path d="M43 53H51" stroke="#143CFF" stroke-width="2"/>
<path d="M46 49H48" stroke="#143CFF" stroke-width="2"/>
<path d="M45 51H49" stroke="#143CFF" stroke-width="2"/>
<path d="M45 55H49" stroke="#143CFF" stroke-width="2"/>
<path d="M46 57H48" stroke="#143CFF" stroke-width="2"/>
<path d="M6 16H14" stroke="#143CFF" stroke-width="2"/>
<path d="M9 12H11" stroke="#143CFF" stroke-width="2"/>
<path d="M8 14H12" stroke="#143CFF" stroke-width="2"/>
<path d="M8 18H12" stroke="#143CFF" stroke-width="2"/>
<path d="M9 20H11" stroke="#143CFF" stroke-width="2"/>
<path d="M24 14H31" stroke="#143CFF" stroke-width="2"/>
<path d="M24 50H31" stroke="#143CFF" stroke-width="2"/>
<path d="M33 14H40" stroke="#143CFF" stroke-width="2"/>
<path d="M33 50H40" stroke="#143CFF" stroke-width="2"/>
<path d="M32 15V49" stroke="#143CFF" stroke-width="2"/>
</svg>
