<svg width="32" height="32" viewBox="0 0 1.92 1.92" xmlns="http://www.w3.org/2000/svg"><g data-name="Layer 2"><path fill="none" d="M0 0h1.92v1.92H0z" data-name="invisible box"/><path d="M1.584.336a.89.89 0 0 0-1.248 0A.88.88 0 0 0 .08.952a.08.08 0 0 0 .024.056.07.07 0 0 0 .056.024.08.08 0 0 0 .08-.08.7.7 0 0 1 .212-.5.72.72 0 0 1 1.016 1.016.72.72 0 0 1-.428.208V.912l.184.184a.076.076 0 0 0 .12-.008.084.084 0 0 0-.008-.108l-.32-.316a.076.076 0 0 0-.112 0L.584.98a.084.084 0 0 0-.008.108.076.076 0 0 0 .12.008L.88.912v.848a.08.08 0 0 0 .08.08h.008a.88.88 0 0 0 .616-.256.89.89 0 0 0 0-1.248" data-name="icons Q2"/></g></svg>