<svg width="130" height="128" viewBox="0 0 130 128" fill="none" xmlns="http://www.w3.org/2000/svg">
<path d="M1.45791 0H129.458V128H1.45791V0Z" fill="#FB923C"/>
<path d="M52.635 25H75.635" stroke="white" stroke-width="2"/>
<path d="M77.7389 29H79.7389" stroke="white" stroke-width="2"/>
<path d="M84.6387 49H86.6387" stroke="white" stroke-width="2"/>
<path d="M79.9897 85H81.9897" stroke="white" stroke-width="2"/>
<path d="M75.7338 67H78.7338" stroke="white" stroke-width="2"/>
<path d="M47.7338 67H59.7338" stroke="white" stroke-width="2"/>
<path d="M48.7338 69H63.7338" stroke="white" stroke-width="2"/>
<path d="M51.9633 71H79.9633" stroke="white" stroke-width="2"/>
<path d="M51.7338 73H81.7338" stroke="white" stroke-width="2"/>
<path d="M52.797 75H77.797" stroke="white" stroke-width="2"/>
<path d="M54.1975 77H76.1975" stroke="white" stroke-width="2"/>
<path d="M58.3508 79H74.3508" stroke="white" stroke-width="2"/>
<path d="M50.7843 85H74.7843" stroke="white" stroke-width="2"/>
<path d="M52.706 89H81.706" stroke="white" stroke-width="2"/>
<path d="M51.1803 91H68.1803" stroke="white" stroke-width="2"/>
<path d="M50.7588 87H61.7588" stroke="white" stroke-width="2"/>
<path d="M51.4441 83H55.4441" stroke="white" stroke-width="2"/>
<path d="M46.736 95H72.736" stroke="white" stroke-width="2"/>
<path d="M48.8176 93H86.8176" stroke="white" stroke-width="2"/>
<path d="M0 97H98" stroke="white" stroke-width="2"/>
<path d="M48.5045 99H85.5045" stroke="white" stroke-width="2"/>
<path d="M50.2906 103H83.2906" stroke="white" stroke-width="2"/>
<path d="M51.4524 107H80.4524" stroke="white" stroke-width="2"/>
<path d="M55.7464 111H76.7464" stroke="white" stroke-width="2"/>
<path d="M22.6353 101H109.635" stroke="white" stroke-width="2"/>
<path d="M16.3099 105H119.31" stroke="white" stroke-width="2"/>
<path d="M9.03349 109H122.033" stroke="white" stroke-width="2"/>
<path d="M8.67276 113H123.673" stroke="white" stroke-width="2"/>
<path d="M9.83529 117H124.835" stroke="white" stroke-width="2"/>
<path d="M8.83759 121H125.838" stroke="white" stroke-width="2"/>
<path d="M9.03672 125H126.037" stroke="white" stroke-width="2"/>
<path d="M41.6389 55H45.4689" stroke="white" stroke-width="2"/>
<path d="M85.7756 55H87.7756" stroke="white" stroke-width="2"/>
<path d="M47.7284 47H51.7284" stroke="white" stroke-width="2"/>
<path d="M65.2718 47H73.2718" stroke="white" stroke-width="2"/>
<path d="M47.7338 51H54.7338" stroke="white" stroke-width="2"/>
<path d="M47.7338 59H64.7338" stroke="white" stroke-width="2"/>
<path d="M70.7338 59H81.7338" stroke="white" stroke-width="2"/>
<path d="M45.9519 61H87.9519" stroke="white" stroke-width="2"/>
<path d="M47.2088 63H80.2088" stroke="white" stroke-width="2"/>
<path d="M48.8244 65H84.8244" stroke="white" stroke-width="2"/>
<path d="M71.7338 69H82.7338" stroke="white" stroke-width="2"/>
<path d="M61.7338 51H73.7338" stroke="white" stroke-width="2"/>
<path d="M49.1075 55H84.1075" stroke="white" stroke-width="2"/>
<path d="M40.4705 57H86.4705" stroke="white" stroke-width="2"/>
<path d="M47.3763 37H56.3763" stroke="white" stroke-width="2"/>
<path d="M52.4712 39H80.4712" stroke="white" stroke-width="2"/>
<path d="M47.2876 43H81.2876" stroke="white" stroke-width="2"/>
<path d="M38.2004 45H82.2004" stroke="white" stroke-width="2"/>
<path d="M41.3686 49H82.3686" stroke="white" stroke-width="2"/>
<path d="M42.7747 53H88.7747" stroke="white" stroke-width="2"/>
<path d="M29.1536 41H83.1536" stroke="white" stroke-width="2"/>
<path d="M40.1136 33H54.1136" stroke="white" stroke-width="2"/>
<path d="M47.8705 29H58.8705" stroke="white" stroke-width="2"/>
<path d="M63.3751 21H70.3751" stroke="white" stroke-width="2"/>
</svg>
