<svg width="64" height="64" viewBox="0 0 64 64" fill="none" xmlns="http://www.w3.org/2000/svg">
<path d="M15 16H24" stroke="#143CFF" stroke-width="2"/>
<path d="M9 20H29" stroke="#143CFF" stroke-width="2"/>
<path d="M6 24H30" stroke="#143CFF" stroke-width="2"/>
<path d="M6 28H58" stroke="#143CFF" stroke-width="2"/>
<path d="M7 32H57" stroke="#143CFF" stroke-width="2"/>
<path d="M9 36H55" stroke="#143CFF" stroke-width="2"/>
<path d="M11 40H53" stroke="#143CFF" stroke-width="2"/>
<path d="M13 44H51" stroke="#143CFF" stroke-width="2"/>
<path d="M17 48H47" stroke="#143CFF" stroke-width="2"/>
<path d="M20 50H44" stroke="#143CFF" stroke-width="2"/>
<path d="M24 52H40" stroke="#143CFF" stroke-width="2"/>
<path d="M28 54H36" stroke="#143CFF" stroke-width="2"/>
<path d="M15 46H49" stroke="#143CFF" stroke-width="2"/>
<path d="M30 42H52" stroke="#143CFF" stroke-width="2"/>
<path d="M39 38H54" stroke="#143CFF" stroke-width="2"/>
<path d="M45 34H56" stroke="#143CFF" stroke-width="2"/>
<path d="M49 30H57" stroke="#143CFF" stroke-width="2"/>
<path d="M53 26H58" stroke="#143CFF" stroke-width="2"/>
<path d="M54 22H57" stroke="#143CFF" stroke-width="2"/>
<path d="M34 24H58" stroke="#143CFF" stroke-width="2"/>
<path d="M35 20H55" stroke="#143CFF" stroke-width="2"/>
<path d="M40 16H49" stroke="#143CFF" stroke-width="2"/>
</svg>
