<svg width="64" height="64" viewBox="0 0 64 64" fill="none" xmlns="http://www.w3.org/2000/svg">
<path d="M12 11H40" stroke="#143CFF" stroke-width="2"/>
<path d="M10 13H41" stroke="#143CFF" stroke-width="2"/>
<path d="M10 25H41" stroke="#143CFF" stroke-width="2"/>
<path d="M6 17H41" stroke="#143CFF" stroke-width="2"/>
<path d="M6 21H41" stroke="#143CFF" stroke-width="2"/>
<path d="M12 27H40" stroke="#143CFF" stroke-width="2"/>
<path d="M8 15H41" stroke="#143CFF" stroke-width="2"/>
<path d="M8 23H41" stroke="#143CFF" stroke-width="2"/>
<path d="M4 19H41" stroke="#143CFF" stroke-width="2"/>
<path d="M25 30.5H53" stroke="#143CFF" stroke-width="2"/>
<path d="M27 28.5H37" stroke="#143CFF" stroke-width="2"/>
<path d="M27 48.5H37" stroke="#143CFF" stroke-width="2"/>
<path d="M27 50.5H37" stroke="#143CFF" stroke-width="2"/>
<path d="M27 52.5H37" stroke="#143CFF" stroke-width="2"/>
<path d="M27 54.5H37" stroke="#143CFF" stroke-width="2"/>
<path d="M27 56.5H37" stroke="#143CFF" stroke-width="2"/>
<path d="M25 46.5H53" stroke="#143CFF" stroke-width="2"/>
<path d="M24 34.5H56" stroke="#143CFF" stroke-width="2"/>
<path d="M24 42.5H56" stroke="#143CFF" stroke-width="2"/>
<path d="M24 38.5H60" stroke="#143CFF" stroke-width="2"/>
</svg>
