<svg width="64" height="64" viewBox="0 0 64 64" fill="none" xmlns="http://www.w3.org/2000/svg">
<path d="M11 17H53" stroke="#143CFF" stroke-width="2"/>
<path d="M8 39H56" stroke="#143CFF" stroke-width="2"/>
<path d="M8 35H28" stroke="#143CFF" stroke-width="2"/>
<path d="M8 31H22" stroke="#143CFF" stroke-width="2"/>
<path d="M8 27H18" stroke="#143CFF" stroke-width="2"/>
<path d="M8 23H13" stroke="#143CFF" stroke-width="2"/>
<path d="M51 23H56" stroke="#143CFF" stroke-width="2"/>
<path d="M46 27H56" stroke="#143CFF" stroke-width="2"/>
<path d="M42 31H56" stroke="#143CFF" stroke-width="2"/>
<path d="M36 35H56" stroke="#143CFF" stroke-width="2"/>
<path d="M8 43H56" stroke="#143CFF" stroke-width="2"/>
<path d="M9 47H55" stroke="#143CFF" stroke-width="2"/>
<path d="M8 21H56" stroke="#143CFF" stroke-width="2"/>
<path d="M8 45H56" stroke="#143CFF" stroke-width="2"/>
<path d="M8 41H56" stroke="#143CFF" stroke-width="2"/>
<path d="M8 37H56" stroke="#143CFF" stroke-width="2"/>
<path d="M8 33H56" stroke="#143CFF" stroke-width="2"/>
<path d="M8 29H56" stroke="#143CFF" stroke-width="2"/>
<path d="M8 25H56" stroke="#143CFF" stroke-width="2"/>
<path d="M11 49H53" stroke="#143CFF" stroke-width="2"/>
</svg>
