<svg width="428" height="560" viewBox="0 0 428 560" fill="none" xmlns="http://www.w3.org/2000/svg">
<path d="M222.936 44H198.936" stroke="#143CFF" stroke-width="2"/>
<path d="M221.88 40H207.88" stroke="#143CFF" stroke-width="2"/>
<path d="M226.145 46H206.145" stroke="#143CFF" stroke-width="2"/>
<path d="M229.274 50H200.274" stroke="#143CFF" stroke-width="2"/>
<path d="M235.064 54H206.064" stroke="#143CFF" stroke-width="2"/>
<path d="M227.72 48H195.72" stroke="#143CFF" stroke-width="2"/>
<path d="M232.743 52H192.743" stroke="#143CFF" stroke-width="2"/>
<path d="M200.51 56H192.51" stroke="#143CFF" stroke-width="2"/>
<path d="M195.505 60H179.505" stroke="#143CFF" stroke-width="2"/>
<path d="M194.437 64H186.437" stroke="#143CFF" stroke-width="2"/>
<path d="M196.309 68H188.309" stroke="#143CFF" stroke-width="2"/>
<path d="M196.316 72H192.316" stroke="#143CFF" stroke-width="2"/>
<path d="M195.856 76H187.856" stroke="#143CFF" stroke-width="2"/>
<path d="M233.467 72H229.467" stroke="#143CFF" stroke-width="2"/>
<path d="M236.961 76H228.961" stroke="#143CFF" stroke-width="2"/>
<path d="M235.541 80H227.541" stroke="#143CFF" stroke-width="2"/>
<path d="M231.744 84H227.744" stroke="#143CFF" stroke-width="2"/>
<path d="M232.065 88H228.065" stroke="#143CFF" stroke-width="2"/>
<path d="M196.638 88H192.638" stroke="#143CFF" stroke-width="2"/>
<path d="M233.553 92H225.553" stroke="#143CFF" stroke-width="2"/>
<path d="M225.439 98H217.439" stroke="#143CFF" stroke-width="2"/>
<path d="M231.986 100H215.986" stroke="#143CFF" stroke-width="2"/>
<path d="M232.426 108H216.426" stroke="#143CFF" stroke-width="2"/>
<path d="M235.883 116H219.883" stroke="#143CFF" stroke-width="2"/>
<path d="M200.011 116H196.011" stroke="#143CFF" stroke-width="2"/>
<path d="M255.642 121H208.642" stroke="#143CFF" stroke-width="2"/>
<path d="M195.399 121H183.399" stroke="#143CFF" stroke-width="2"/>
<path d="M255.853 140H126.853" stroke="#143CFF" stroke-width="2"/>
<path d="M283.993 148H146.993" stroke="#143CFF" stroke-width="2"/>
<path d="M268.823 170H260.823" stroke="#143CFF" stroke-width="2"/>
<path d="M267.633 174H261.633" stroke="#143CFF" stroke-width="2"/>
<path d="M265.876 178H260.876" stroke="#143CFF" stroke-width="2"/>
<path d="M263.041 182H261.041" stroke="#143CFF" stroke-width="2"/>
<path d="M271.612 162H259.612" stroke="#143CFF" stroke-width="2"/>
<path d="M266.47 158H261.47" stroke="#143CFF" stroke-width="2"/>
<path d="M270.41 166H262.41" stroke="#143CFF" stroke-width="2"/>
<path d="M299.588 168H135.588" stroke="#143CFF" stroke-width="2"/>
<path d="M165.309 162H161.309" stroke="#143CFF" stroke-width="2"/>
<path d="M169.643 170H158.643" stroke="#143CFF" stroke-width="2"/>
<path d="M167 174H155" stroke="#143CFF" stroke-width="2"/>
<path d="M169.825 166H161.825" stroke="#143CFF" stroke-width="2"/>
<path d="M288.355 156H141.355" stroke="#143CFF" stroke-width="2"/>
<path d="M289.956 160H139.956" stroke="#143CFF" stroke-width="2"/>
<path d="M292.367 164H137.367" stroke="#143CFF" stroke-width="2"/>
<path d="M295.973 172H130.973" stroke="#143CFF" stroke-width="2"/>
<path d="M264.171 180H168.171" stroke="#143CFF" stroke-width="2"/>
<path d="M261.675 184H166.675" stroke="#143CFF" stroke-width="2"/>
<path d="M266.803 176H143.803" stroke="#143CFF" stroke-width="2"/>
<path d="M156.253 180H124.253" stroke="#143CFF" stroke-width="2"/>
<path d="M140.153 196H112.153" stroke="#143CFF" stroke-width="2"/>
<path d="M139.058 212H115.058" stroke="#143CFF" stroke-width="2"/>
<path d="M144.45 228H124.45" stroke="#143CFF" stroke-width="2"/>
<path d="M305.531 180H277.531" stroke="#143CFF" stroke-width="2"/>
<path d="M314.389 200H306.389" stroke="#143CFF" stroke-width="2"/>
<path d="M309.472 208H300.472" stroke="#143CFF" stroke-width="2"/>
<path d="M305.484 216H294.484" stroke="#143CFF" stroke-width="2"/>
<path d="M301.457 224H289.457" stroke="#143CFF" stroke-width="2"/>
<path d="M296.999 232H284.999" stroke="#143CFF" stroke-width="2"/>
<path d="M286.608 240H278.608" stroke="#143CFF" stroke-width="2"/>
<path d="M280.068 248H272.068" stroke="#143CFF" stroke-width="2"/>
<path d="M167.556 256H159.556" stroke="#143CFF" stroke-width="2"/>
<path d="M154.943 240H146.943" stroke="#143CFF" stroke-width="2"/>
<path d="M146.999 232H137.999" stroke="#143CFF" stroke-width="2"/>
<path d="M144.271 224H134.271" stroke="#143CFF" stroke-width="2"/>
<path d="M141.131 216H131.131" stroke="#143CFF" stroke-width="2"/>
<path d="M136.065 208H126.065" stroke="#143CFF" stroke-width="2"/>
<path d="M136.135 200H126.135" stroke="#143CFF" stroke-width="2"/>
<path d="M144.572 192H133.572" stroke="#143CFF" stroke-width="2"/>
<path d="M152.879 184H139.879" stroke="#143CFF" stroke-width="2"/>
<path d="M260.855 188H169.855" stroke="#143CFF" stroke-width="2"/>
<path d="M261.367 192H172.367" stroke="#143CFF" stroke-width="2"/>
<path d="M309.554 188H283.554" stroke="#143CFF" stroke-width="2"/>
<path d="M260.043 196H172.043" stroke="#143CFF" stroke-width="2"/>
<path d="M258.334 200H173.334" stroke="#143CFF" stroke-width="2"/>
<path d="M256.601 208H173.601" stroke="#143CFF" stroke-width="2"/>
<path d="M253.331 216H176.331" stroke="#143CFF" stroke-width="2"/>
<path d="M312.081 196H288.081" stroke="#143CFF" stroke-width="2"/>
<path d="M306.784 212H282.784" stroke="#143CFF" stroke-width="2"/>
<path d="M300.002 228H280.002" stroke="#143CFF" stroke-width="2"/>
<path d="M290.948 236H272.948" stroke="#143CFF" stroke-width="2"/>
<path d="M153.282 236H132.282" stroke="#143CFF" stroke-width="2"/>
<path d="M143.12 220H119.12" stroke="#143CFF" stroke-width="2"/>
<path d="M128.313 204H105.313" stroke="#143CFF" stroke-width="2"/>
<path d="M146.426 188H118.426" stroke="#143CFF" stroke-width="2"/>
<path d="M285.249 244H122.34" stroke="#143CFF" stroke-width="2"/>
<path d="M278.888 252H148.888" stroke="#143CFF" stroke-width="2"/>
<path d="M266.858 260H160.494" stroke="#143CFF" stroke-width="2"/>
<path d="M257.026 268H170.36" stroke="#143CFF" stroke-width="2"/>
<path d="M257.654 276H169.017" stroke="#143CFF" stroke-width="2"/>
<path d="M259.412 284H167.412" stroke="#143CFF" stroke-width="2"/>
<path d="M258.964 292H164.964" stroke="#143CFF" stroke-width="2"/>
<path d="M261.423 300H166.423" stroke="#143CFF" stroke-width="2"/>
<path d="M254.849 308H149.849" stroke="#143CFF" stroke-width="2"/>
<path d="M209.017 316H159.775" stroke="#143CFF" stroke-width="2"/>
<path d="M208.313 324H161.04" stroke="#143CFF" stroke-width="2"/>
<path d="M205.391 328H160.088" stroke="#143CFF" stroke-width="2"/>
<path d="M203.839 332H160.506" stroke="#143CFF" stroke-width="2"/>
<path d="M201.743 336H159.395" stroke="#143CFF" stroke-width="2"/>
<path d="M201.013 340H160.634" stroke="#143CFF" stroke-width="2"/>
<path d="M199.194 344H159.8" stroke="#143CFF" stroke-width="2"/>
<path d="M199.162 348H159.768" stroke="#143CFF" stroke-width="2"/>
<path d="M199.417 352H160.023" stroke="#143CFF" stroke-width="2"/>
<path d="M199.063 356H160.654" stroke="#143CFF" stroke-width="2"/>
<path d="M195.973 364H160.518" stroke="#143CFF" stroke-width="2"/>
<path d="M262.552 364H223.158" stroke="#143CFF" stroke-width="2"/>
<path d="M191.789 380H160.274" stroke="#143CFF" stroke-width="2"/>
<path d="M265.074 380H233.559" stroke="#143CFF" stroke-width="2"/>
<path d="M263.895 396H232.38" stroke="#143CFF" stroke-width="2"/>
<path d="M188.82 396H161.245" stroke="#143CFF" stroke-width="2"/>
<path d="M179 412H149.454" stroke="#143CFF" stroke-width="2"/>
<path d="M262.666 412H235.09" stroke="#143CFF" stroke-width="2"/>
<path d="M181.246 428H157.61" stroke="#143CFF" stroke-width="2"/>
<path d="M264.676 428H241.04" stroke="#143CFF" stroke-width="2"/>
<path d="M180.964 444H157.327" stroke="#143CFF" stroke-width="2"/>
<path d="M264.65 444H241.013" stroke="#143CFF" stroke-width="2"/>
<path d="M174.442 460H154.745" stroke="#143CFF" stroke-width="2"/>
<path d="M265.44 460H245.743" stroke="#143CFF" stroke-width="2"/>
<path d="M176.422 476H156.725" stroke="#143CFF" stroke-width="2"/>
<path d="M176.312 478H156.615" stroke="#143CFF" stroke-width="2"/>
<path d="M173.385 482H151.719" stroke="#143CFF" stroke-width="2"/>
<path d="M174.945 486H147.369" stroke="#143CFF" stroke-width="2"/>
<path d="M175.173 490H145.627" stroke="#143CFF" stroke-width="2"/>
<path d="M175.054 494H141.569" stroke="#143CFF" stroke-width="2"/>
<path d="M171.069 498H137.584" stroke="#143CFF" stroke-width="2"/>
<path d="M174.158 468H156.431" stroke="#143CFF" stroke-width="2"/>
<path d="M176.511 452H155.83" stroke="#143CFF" stroke-width="2"/>
<path d="M179.695 436H155.695" stroke="#143CFF" stroke-width="2"/>
<path d="M182.831 420H158.831" stroke="#143CFF" stroke-width="2"/>
<path d="M184.002 404H160.002" stroke="#143CFF" stroke-width="2"/>
<path d="M189.386 388H162.386" stroke="#143CFF" stroke-width="2"/>
<path d="M190.925 372H160.925" stroke="#143CFF" stroke-width="2"/>
<path d="M264.03 372H230.03" stroke="#143CFF" stroke-width="2"/>
<path d="M263.553 388H231.553" stroke="#143CFF" stroke-width="2"/>
<path d="M263.807 404H235.807" stroke="#143CFF" stroke-width="2"/>
<path d="M262.468 420H238.468" stroke="#143CFF" stroke-width="2"/>
<path d="M263.31 436H240.31" stroke="#143CFF" stroke-width="2"/>
<path d="M264.973 452H242.973" stroke="#143CFF" stroke-width="2"/>
<path d="M264.836 468H246.836" stroke="#143CFF" stroke-width="2"/>
<path d="M266.799 476H231.345" stroke="#143CFF" stroke-width="2"/>
<path d="M265.779 478H246.082" stroke="#143CFF" stroke-width="2"/>
<path d="M270.684 482H249.017" stroke="#143CFF" stroke-width="2"/>
<path d="M274.999 486H247.423" stroke="#143CFF" stroke-width="2"/>
<path d="M277.512 490H247.967" stroke="#143CFF" stroke-width="2"/>
<path d="M282.256 494H248.772" stroke="#143CFF" stroke-width="2"/>
<path d="M283.575 498H250.09" stroke="#143CFF" stroke-width="2"/>
<path d="M269.813 480H246.177" stroke="#143CFF" stroke-width="2"/>
<path d="M275.281 484H249.675" stroke="#143CFF" stroke-width="2"/>
<path d="M268.961 488H240.4" stroke="#143CFF" stroke-width="2"/>
<path d="M279.212 492H248.681" stroke="#143CFF" stroke-width="2"/>
<path d="M281.225 496H248.725" stroke="#143CFF" stroke-width="2"/>
<path d="M285.701 500H251.231" stroke="#143CFF" stroke-width="2"/>
<path d="M286.434 502H254.919" stroke="#143CFF" stroke-width="2"/>
<path d="M175.991 480H152.355" stroke="#143CFF" stroke-width="2"/>
<path d="M373.037 498H57.0368" stroke="#143CFF" stroke-width="2"/>
<path d="M295.156 502H133.145" stroke="#143CFF" stroke-width="2"/>
<path d="M174.197 484H148.591" stroke="#143CFF" stroke-width="2"/>
<path d="M176.103 488H147.542" stroke="#143CFF" stroke-width="2"/>
<path d="M174.075 492H143.545" stroke="#143CFF" stroke-width="2"/>
<path d="M174.323 496H141.823" stroke="#143CFF" stroke-width="2"/>
<path d="M171.376 500H136.907" stroke="#143CFF" stroke-width="2"/>
<path d="M169.44 502H137.924" stroke="#143CFF" stroke-width="2"/>
<path d="M261.278 316H214.005" stroke="#143CFF" stroke-width="2"/>
<path d="M260.194 320H214.891" stroke="#143CFF" stroke-width="2"/>
<path d="M260.826 322H216.507" stroke="#143CFF" stroke-width="2"/>
<path d="M261.053 326H216.735" stroke="#143CFF" stroke-width="2"/>
<path d="M262.479 330H217.176" stroke="#143CFF" stroke-width="2"/>
<path d="M262.513 334H218.179" stroke="#143CFF" stroke-width="2"/>
<path d="M265.114 338H219.78" stroke="#143CFF" stroke-width="2"/>
<path d="M263.871 342H219.538" stroke="#143CFF" stroke-width="2"/>
<path d="M265.208 346H221.875" stroke="#143CFF" stroke-width="2"/>
<path d="M265.328 350H223.964" stroke="#143CFF" stroke-width="2"/>
<path d="M260.044 318H214.741" stroke="#143CFF" stroke-width="2"/>
<path d="M210.265 320H162.265" stroke="#143CFF" stroke-width="2"/>
<path d="M209.384 318H174.44" stroke="#143CFF" stroke-width="2"/>
<path d="M208.741 322H168.741" stroke="#143CFF" stroke-width="2"/>
<path d="M205.979 326H173.979" stroke="#143CFF" stroke-width="2"/>
<path d="M205.647 330H169.647" stroke="#143CFF" stroke-width="2"/>
<path d="M200.737 338H164.737" stroke="#143CFF" stroke-width="2"/>
<path d="M201.958 334H170.958" stroke="#143CFF" stroke-width="2"/>
<path d="M201.141 346H164.141" stroke="#143CFF" stroke-width="2"/>
<path d="M201.062 350H167.062" stroke="#143CFF" stroke-width="2"/>
<path d="M201.58 342H170.58" stroke="#143CFF" stroke-width="2"/>
<path d="M198.243 360H179.354" stroke="#143CFF" stroke-width="2"/>
<path d="M194.236 368H175.347" stroke="#143CFF" stroke-width="2"/>
<path d="M193.5 376H176.5" stroke="#143CFF" stroke-width="2"/>
<path d="M190.574 384H175.463" stroke="#143CFF" stroke-width="2"/>
<path d="M186.502 392H173.28" stroke="#143CFF" stroke-width="2"/>
<path d="M187.208 400H175.875" stroke="#143CFF" stroke-width="2"/>
<path d="M183.893 408H174.449" stroke="#143CFF" stroke-width="2"/>
<path d="M183.912 416H166.912" stroke="#143CFF" stroke-width="2"/>
<path d="M183.273 424H168.162" stroke="#143CFF" stroke-width="2"/>
<path d="M179.421 432H167.143" stroke="#143CFF" stroke-width="2"/>
<path d="M181.547 440H171.158" stroke="#143CFF" stroke-width="2"/>
<path d="M178.942 448H169.497" stroke="#143CFF" stroke-width="2"/>
<path d="M177.991 456H168.547" stroke="#143CFF" stroke-width="2"/>
<path d="M173.414 464H163.97" stroke="#143CFF" stroke-width="2"/>
<path d="M175.173 472H165.729" stroke="#143CFF" stroke-width="2"/>
<path d="M260.195 324H215.877" stroke="#143CFF" stroke-width="2"/>
<path d="M260.301 328H215.982" stroke="#143CFF" stroke-width="2"/>
<path d="M263.004 332H217.701" stroke="#143CFF" stroke-width="2"/>
<path d="M264.004 336H218.686" stroke="#143CFF" stroke-width="2"/>
<path d="M264.128 340H218.794" stroke="#143CFF" stroke-width="2"/>
<path d="M263.471 344H219.138" stroke="#143CFF" stroke-width="2"/>
<path d="M264.611 348H222.278" stroke="#143CFF" stroke-width="2"/>
<path d="M265.068 352H225.674" stroke="#143CFF" stroke-width="2"/>
<path d="M262.558 356H223.164" stroke="#143CFF" stroke-width="2"/>
<path d="M262.437 360H246.437" stroke="#143CFF" stroke-width="2"/>
<path d="M264.356 368H248.356" stroke="#143CFF" stroke-width="2"/>
<path d="M264.516 376H249.516" stroke="#143CFF" stroke-width="2"/>
<path d="M265.496 384H250.496" stroke="#143CFF" stroke-width="2"/>
<path d="M264.463 392H256.463" stroke="#143CFF" stroke-width="2"/>
<path d="M264.134 400H258.134" stroke="#143CFF" stroke-width="2"/>
<path d="M263.994 408H252.994" stroke="#143CFF" stroke-width="2"/>
<path d="M264.059 424H254.059" stroke="#143CFF" stroke-width="2"/>
<path d="M263.678 432H255.678" stroke="#143CFF" stroke-width="2"/>
<path d="M263.952 440H255.952" stroke="#143CFF" stroke-width="2"/>
<path d="M264.65 448H256.65" stroke="#143CFF" stroke-width="2"/>
<path d="M263.321 456H255.321" stroke="#143CFF" stroke-width="2"/>
<path d="M264.259 464H256.259" stroke="#143CFF" stroke-width="2"/>
<path d="M263.99 472H255.99" stroke="#143CFF" stroke-width="2"/>
<path d="M265.354 416H251.354" stroke="#143CFF" stroke-width="2"/>
<path d="M258.848 280H173.167" stroke="#143CFF" stroke-width="2"/>
<path d="M260.511 282H181.724" stroke="#143CFF" stroke-width="2"/>
<path d="M258.554 286H179.766" stroke="#143CFF" stroke-width="2"/>
<path d="M261.277 290H180.519" stroke="#143CFF" stroke-width="2"/>
<path d="M259.232 294H176.505" stroke="#143CFF" stroke-width="2"/>
<path d="M260.786 298H181.998" stroke="#143CFF" stroke-width="2"/>
<path d="M260.59 302H181.802" stroke="#143CFF" stroke-width="2"/>
<path d="M261.523 306H180.765" stroke="#143CFF" stroke-width="2"/>
<path d="M249.109 310H165.397" stroke="#143CFF" stroke-width="2"/>
<path d="M258.5 314H174.788" stroke="#143CFF" stroke-width="2"/>
<path d="M260.051 288H174.051" stroke="#143CFF" stroke-width="2"/>
<path d="M261.118 296H171.118" stroke="#143CFF" stroke-width="2"/>
<path d="M260.959 304H173.959" stroke="#143CFF" stroke-width="2"/>
<path d="M261.556 312H163.556" stroke="#143CFF" stroke-width="2"/>
<path d="M256.965 272H171.965" stroke="#143CFF" stroke-width="2"/>
<path d="M304.879 220H283.879" stroke="#143CFF" stroke-width="2"/>
<path d="M312.967 204H287.967" stroke="#143CFF" stroke-width="2"/>
<path d="M257.967 204H174.967" stroke="#143CFF" stroke-width="2"/>
<path d="M255.435 212H175.435" stroke="#143CFF" stroke-width="2"/>
<path d="M252.17 220H176.17" stroke="#143CFF" stroke-width="2"/>
<path d="M252.249 224H176.249" stroke="#143CFF" stroke-width="2"/>
<path d="M253.194 232H177.194" stroke="#143CFF" stroke-width="2"/>
<path d="M252.678 240H176.678" stroke="#143CFF" stroke-width="2"/>
<path d="M251.046 248H175.046" stroke="#143CFF" stroke-width="2"/>
<path d="M242.963 256H182.963" stroke="#143CFF" stroke-width="2"/>
<path d="M248.771 264H171.771" stroke="#143CFF" stroke-width="2"/>
<path d="M252.597 266H179.597" stroke="#143CFF" stroke-width="2"/>
<path d="M252.997 270H181.997" stroke="#143CFF" stroke-width="2"/>
<path d="M257.141 274H180.141" stroke="#143CFF" stroke-width="2"/>
<path d="M258.38 278H178.38" stroke="#143CFF" stroke-width="2"/>
<path d="M253.578 228H177.578" stroke="#143CFF" stroke-width="2"/>
<path d="M253.55 236H177.55" stroke="#143CFF" stroke-width="2"/>
<path d="M273.17 132H225.17" stroke="#143CFF" stroke-width="2"/>
<path d="M203.912 132H158.912" stroke="#143CFF" stroke-width="2"/>
<path d="M197.263 128.5H164.263" stroke="#143CFF" stroke-width="2"/>
<path d="M195.66 124.5H167.66" stroke="#143CFF" stroke-width="2"/>
<path d="M263.421 128.5H231.421" stroke="#143CFF" stroke-width="2"/>
<path d="M260.98 124.5H232.98" stroke="#143CFF" stroke-width="2"/>
<path d="M276.672 136H154.672" stroke="#143CFF" stroke-width="2"/>
<path d="M274.253 144H141.253" stroke="#143CFF" stroke-width="2"/>
<path d="M288.117 152H145.117" stroke="#143CFF" stroke-width="2"/>
<path d="M209.46 68H202.46" stroke="#143CFF" stroke-width="2"/>
<path d="M220.408 76H212.408" stroke="#143CFF" stroke-width="2"/>
<path d="M218.921 86H210.921" stroke="#143CFF" stroke-width="2"/>
<path d="M228 96H206" stroke="#143CFF" stroke-width="2"/>
<path d="M229.943 104H196.943" stroke="#143CFF" stroke-width="2"/>
<path d="M233.004 112H213.004" stroke="#143CFF" stroke-width="2"/>
<path d="M223.779 84H207.779" stroke="#143CFF" stroke-width="2"/>
<path d="M236.141 68H224.141" stroke="#143CFF" stroke-width="2"/>
<path d="M212.053 64H200.053" stroke="#143CFF" stroke-width="2"/>
<path d="M237.012 64H221.012" stroke="#143CFF" stroke-width="2"/>
<path d="M237.392 60H229.392" stroke="#143CFF" stroke-width="2"/>
<path d="M236.663 56H228.663" stroke="#143CFF" stroke-width="2"/>
<path d="M237.439 58H230.439" stroke="#143CFF" stroke-width="2"/>
<path d="M236.58 62H231.58" stroke="#143CFF" stroke-width="2"/>
<path d="M234.034 66H231.034" stroke="#143CFF" stroke-width="2"/>
</svg>
