<svg width="55" height="61" viewBox="0 0 55 61" fill="none" xmlns="http://www.w3.org/2000/svg">
<path opacity="0.1" d="M54 61V7C54 3.68629 51.3137 1 48 1H7C3.68629 1 1 3.68629 1 7V61" stroke="black"/>
<mask id="mask0_22_4445" style="mask-type:luminance" maskUnits="userSpaceOnUse" x="11" y="14" width="33" height="33">
<path d="M31.7846 14L11 26L23 46.7846L43.7846 34.7846L31.7846 14Z" fill="white"/>
</mask>
<g mask="url(#mask0_22_4445)">
<path fill-rule="evenodd" clip-rule="evenodd" d="M22.082 35.1918L21.832 34.7588L21.7334 34.588C21.1703 33.6126 21.1319 32.4203 21.6311 31.4107C21.8672 30.9331 22.4459 30.7373 22.9236 30.9735C23.0943 31.0579 23.2363 31.191 23.3315 31.356L24.9301 34.1248L19.6801 25.0316C19.2659 24.3141 19.5117 23.3967 20.2291 22.9825C20.9466 22.5683 21.864 22.8141 22.2782 23.5316L26.5282 30.8928L24.2782 26.9957C23.864 26.2782 24.1098 25.3608 24.8272 24.9466C25.5447 24.5324 26.462 24.7782 26.8763 25.4957L29.1263 29.3928L27.3763 26.3617C26.962 25.6443 27.2079 24.7269 27.9253 24.3127C28.6427 23.8984 29.5601 24.1443 29.9743 24.8617L31.7243 27.8928L30.4743 25.7277C30.0601 25.0103 30.3059 24.0929 31.0234 23.6787C31.7408 23.2645 32.6582 23.5103 33.0724 24.2277L35.5724 28.5579C37.3673 31.6668 36.3021 35.6421 33.1932 37.437L32.3272 37.937C28.74 40.0081 24.1531 38.779 22.082 35.1918Z" fill="#181818" fill-opacity="0.1" stroke="#171717" stroke-linejoin="round"/>
</g>
<path opacity="0.1" d="M34.5 5.5H21.5C20.3954 5.5 19.5 6.39543 19.5 7.5C19.5 8.60457 20.3954 9.5 21.5 9.5H34.5C35.6046 9.5 36.5 8.60457 36.5 7.5C36.5 6.39543 35.6046 5.5 34.5 5.5Z" stroke="black"/>
</svg>
