<svg width="32" height="32" viewBox="0 0 1.28 1.28" fill="none" xmlns="http://www.w3.org/2000/svg"><path d="M0.96 0.16h0.16a0.04 0.04 0 0 1 0.04 0.04v1a0.04 0.04 0 0 1 -0.04 0.04H0.16a0.04 0.04 0 0 1 -0.04 -0.04v-1A0.04 0.04 0 0 1 0.16 0.16H0.2m0.28 0h0.2m-0.32 0.44h0.28m-0.28 0.16h0.56m-0.56 0.16h0.56M0.48 0.24a0.04 0.04 0 0 1 -0.04 0.04H0.36A0.04 0.04 0 0 1 0.32 0.24V0.08A0.04 0.04 0 0 1 0.36 0.04h0.08a0.04 0.04 0 0 1 0.04 0.04zm0.48 0a0.04 0.04 0 0 1 -0.04 0.04h-0.08A0.04 0.04 0 0 1 0.8 0.24V0.08a0.04 0.04 0 0 1 0.04 -0.04h0.08a0.04 0.04 0 0 1 0.04 0.04z" stroke="#000" stroke-width="0.08" stroke-linecap="round" stroke-linejoin="round"/></svg>