<svg width="81" height="64" viewBox="0 0 81 64" fill="none" xmlns="http://www.w3.org/2000/svg">
<path d="M80.4205 55.5625H0.420464V59.5625H80.4205V55.5625Z" fill="#EA4335"/>
<path d="M80.4205 59.5625H0.420464V63.5625H80.4205V59.5625Z" fill="#EA4335"/>
<path d="M80.4205 51.5625H0.420464V55.5625H80.4205V51.5625Z" fill="#EA4335"/>
<path opacity="0.210547" d="M4.41773 24.8789H2.41773C1.86545 24.8789 1.41773 25.3266 1.41773 25.8789V27.8789C1.41773 28.4312 1.86545 28.8789 2.41773 28.8789H4.41773C4.97002 28.8789 5.41773 28.4312 5.41773 27.8789V25.8789C5.41773 25.3266 4.97002 24.8789 4.41773 24.8789Z" fill="#EA4335"/>
<path opacity="0.751846" d="M46.4177 41.1172H44.4177C43.8654 41.1172 43.4177 41.5649 43.4177 42.1172V44.1172C43.4177 44.6695 43.8654 45.1172 44.4177 45.1172H46.4177C46.97 45.1172 47.4177 44.6695 47.4177 44.1172V42.1172C47.4177 41.5649 46.97 41.1172 46.4177 41.1172Z" fill="#EA4335"/>
<path opacity="0.394868" d="M34.4177 30.4102H32.4177C31.8654 30.4102 31.4177 30.8579 31.4177 31.4102V33.4102C31.4177 33.9624 31.8654 34.4102 32.4177 34.4102H34.4177C34.97 34.4102 35.4177 33.9624 35.4177 33.4102V31.4102C35.4177 30.8579 34.97 30.4102 34.4177 30.4102Z" fill="#EA4335"/>
<path opacity="0.154332" d="M72.4177 23.1914H70.4177C69.8654 23.1914 69.4177 23.6391 69.4177 24.1914V26.1914C69.4177 26.7437 69.8654 27.1914 70.4177 27.1914H72.4177C72.97 27.1914 73.4177 26.7437 73.4177 26.1914V24.1914C73.4177 23.6391 72.97 23.1914 72.4177 23.1914Z" fill="#EA4335"/>
<path opacity="0.504028" d="M79.4205 29.6836H77.4205C76.8682 29.6836 76.4205 30.1313 76.4205 30.6836V32.6836C76.4205 33.2359 76.8682 33.6836 77.4205 33.6836H79.4205C79.9728 33.6836 80.4205 33.2359 80.4205 32.6836V30.6836C80.4205 30.1313 79.9728 29.6836 79.4205 29.6836Z" fill="#EA4335"/>
<path opacity="0.314005" d="M58.4177 23.9844H56.4177C55.8654 23.9844 55.4177 24.4321 55.4177 24.9844V26.9844C55.4177 27.5367 55.8654 27.9844 56.4177 27.9844H58.4177C58.97 27.9844 59.4177 27.5367 59.4177 26.9844V24.9844C59.4177 24.4321 58.97 23.9844 58.4177 23.9844Z" fill="#EA4335"/>
<path opacity="0.254606" d="M38.4177 22.1992H36.4177C35.8654 22.1992 35.4177 22.6469 35.4177 23.1992V25.1992C35.4177 25.7515 35.8654 26.1992 36.4177 26.1992H38.4177C38.97 26.1992 39.4177 25.7515 39.4177 25.1992V23.1992C39.4177 22.6469 38.97 22.1992 38.4177 22.1992Z" fill="#EA4335"/>
<path opacity="0.27756" d="M16.4177 22.8906H14.4177C13.8654 22.8906 13.4177 23.3383 13.4177 23.8906V25.8906C13.4177 26.4429 13.8654 26.8906 14.4177 26.8906H16.4177C16.97 26.8906 17.4177 26.4429 17.4177 25.8906V23.8906C17.4177 23.3383 16.97 22.8906 16.4177 22.8906Z" fill="#EA4335"/>
<path opacity="0.0490789" d="M4.41773 12.0352H2.41773C1.86545 12.0352 1.41773 12.4829 1.41773 13.0352V15.0352C1.41773 15.5874 1.86545 16.0352 2.41773 16.0352H4.41773C4.97002 16.0352 5.41773 15.5874 5.41773 15.0352V13.0352C5.41773 12.4829 4.97002 12.0352 4.41773 12.0352Z" fill="#EA4335"/>
<path opacity="0.831777" d="M30.4177 35.5156H28.4177C27.8654 35.5156 27.4177 35.9633 27.4177 36.5156V38.5156C27.4177 39.0679 27.8654 39.5156 28.4177 39.5156H30.4177C30.97 39.5156 31.4177 39.0679 31.4177 38.5156V36.5156C31.4177 35.9633 30.97 35.5156 30.4177 35.5156Z" fill="#EA4335"/>
<path opacity="0.523064" d="M50.4177 26.2539H48.4177C47.8654 26.2539 47.4177 26.7016 47.4177 27.2539V29.2539C47.4177 29.8062 47.8654 30.2539 48.4177 30.2539H50.4177C50.97 30.2539 51.4177 29.8062 51.4177 29.2539V27.2539C51.4177 26.7016 50.97 26.2539 50.4177 26.2539Z" fill="#EA4335"/>
<path opacity="0.799138" d="M76.4177 30.5352H74.4177C73.8654 30.5352 73.4177 30.9829 73.4177 31.5352V33.5352C73.4177 34.0874 73.8654 34.5352 74.4177 34.5352H76.4177C76.97 34.5352 77.4177 34.0874 77.4177 33.5352V31.5352C77.4177 30.9829 76.97 30.5352 76.4177 30.5352Z" fill="#EA4335"/>
<path opacity="0.102085" d="M54.4177 9.625H52.4177C51.8654 9.625 51.4177 10.0727 51.4177 10.625V12.625C51.4177 13.1773 51.8654 13.625 52.4177 13.625H54.4177C54.97 13.625 55.4177 13.1773 55.4177 12.625V10.625C55.4177 10.0727 54.97 9.625 54.4177 9.625Z" fill="#EA4335"/>
<path opacity="0.270285" d="M20.4177 14.6719H18.4177C17.8654 14.6719 17.4177 15.1196 17.4177 15.6719V17.6719C17.4177 18.2242 17.8654 18.6719 18.4177 18.6719H20.4177C20.97 18.6719 21.4177 18.2242 21.4177 17.6719V15.6719C21.4177 15.1196 20.97 14.6719 20.4177 14.6719Z" fill="#EA4335"/>
<path opacity="0.740849" d="M8.41773 24.7891H6.41773C5.86545 24.7891 5.41773 25.2368 5.41773 25.7891V27.7891C5.41773 28.3413 5.86545 28.7891 6.41773 28.7891H8.41773C8.97002 28.7891 9.41773 28.3413 9.41773 27.7891V25.7891C9.41773 25.2368 8.97002 24.7891 8.41773 24.7891Z" fill="#EA4335"/>
<path opacity="0.747335" d="M42.4177 24.9844H40.4177C39.8654 24.9844 39.4177 25.4321 39.4177 25.9844V27.9844C39.4177 28.5367 39.8654 28.9844 40.4177 28.9844H42.4177C42.97 28.9844 43.4177 28.5367 43.4177 27.9844V25.9844C43.4177 25.4321 42.97 24.9844 42.4177 24.9844Z" fill="#EA4335"/>
<path opacity="0.450633" d="M63.4177 16.082H61.4177C60.8654 16.082 60.4177 16.5297 60.4177 17.082V19.082C60.4177 19.6343 60.8654 20.082 61.4177 20.082H63.4177C63.97 20.082 64.4177 19.6343 64.4177 19.082V17.082C64.4177 16.5297 63.97 16.082 63.4177 16.082Z" fill="#EA4335"/>
<path opacity="0.656906" d="M79.4205 18.957H77.4205C76.8682 18.957 76.4205 19.4047 76.4205 19.957V21.957C76.4205 22.5093 76.8682 22.957 77.4205 22.957H79.4205C79.9728 22.957 80.4205 22.5093 80.4205 21.957V19.957C80.4205 19.4047 79.9728 18.957 79.4205 18.957Z" fill="#EA4335"/>
<path opacity="0.01" d="M26.4177 0.597656H24.4177C23.8654 0.597656 23.4177 1.04537 23.4177 1.59766V3.59766C23.4177 4.14994 23.8654 4.59766 24.4177 4.59766H26.4177C26.97 4.59766 27.4177 4.14994 27.4177 3.59766V1.59766C27.4177 1.04537 26.97 0.597656 26.4177 0.597656Z" fill="#EA4335"/>
<path opacity="0.600103" d="M57.4177 14.9648H55.4177C54.8654 14.9648 54.4177 15.4126 54.4177 15.9648V17.9648C54.4177 18.5171 54.8654 18.9648 55.4177 18.9648H57.4177C57.97 18.9648 58.4177 18.5171 58.4177 17.9648V15.9648C58.4177 15.4126 57.97 14.9648 57.4177 14.9648Z" fill="#EA4335"/>
<path opacity="0.63367" d="M71.4177 13.2344H69.4177C68.8654 13.2344 68.4177 13.6821 68.4177 14.2344V16.2344C68.4177 16.7867 68.8654 17.2344 69.4177 17.2344H71.4177C71.97 17.2344 72.4177 16.7867 72.4177 16.2344V14.2344C72.4177 13.6821 71.97 13.2344 71.4177 13.2344Z" fill="#EA4335"/>
<path opacity="0.0250939" d="M4.41773 1.0625H2.41773C1.86545 1.0625 1.41773 1.51022 1.41773 2.0625V4.0625C1.41773 4.61478 1.86545 5.0625 2.41773 5.0625H4.41773C4.97002 5.0625 5.41773 4.61478 5.41773 4.0625V2.0625C5.41773 1.51022 4.97002 1.0625 4.41773 1.0625Z" fill="#EA4335"/>
<path opacity="0.01" d="M22.4177 0.714844H20.4177C19.8654 0.714844 19.4177 1.16256 19.4177 1.71484V3.71484C19.4177 4.26713 19.8654 4.71484 20.4177 4.71484H22.4177C22.97 4.71484 23.4177 4.26713 23.4177 3.71484V1.71484C23.4177 1.16256 22.97 0.714844 22.4177 0.714844Z" fill="#EA4335"/>
<path opacity="0.0191938" d="M48.4177 0.792969H46.4177C45.8654 0.792969 45.4177 1.24068 45.4177 1.79297V3.79297C45.4177 4.34525 45.8654 4.79297 46.4177 4.79297H48.4177C48.97 4.79297 49.4177 4.34525 49.4177 3.79297V1.79297C49.4177 1.24068 48.97 0.792969 48.4177 0.792969Z" fill="#EA4335"/>
<path opacity="0.327091" d="M17.4177 1.87109H15.4177C14.8654 1.87109 14.4177 2.31881 14.4177 2.87109V4.87109C14.4177 5.42338 14.8654 5.87109 15.4177 5.87109H17.4177C17.97 5.87109 18.4177 5.42338 18.4177 4.87109V2.87109C18.4177 2.31881 17.97 1.87109 17.4177 1.87109Z" fill="#EA4335"/>
<path opacity="0.198464" d="M66.4177 0.5625H64.4177C63.8654 0.5625 63.4177 1.01022 63.4177 1.5625V3.5625C63.4177 4.11478 63.8654 4.5625 64.4177 4.5625H66.4177C66.97 4.5625 67.4177 4.11478 67.4177 3.5625V1.5625C67.4177 1.01022 66.97 0.5625 66.4177 0.5625Z" fill="#EA4335"/>
<path opacity="0.305126" d="M37.4177 7.88672H35.4177C34.8654 7.88672 34.4177 8.33443 34.4177 8.88672V10.8867C34.4177 11.439 34.8654 11.8867 35.4177 11.8867H37.4177C37.97 11.8867 38.4177 11.439 38.4177 10.8867V8.88672C38.4177 8.33443 37.97 7.88672 37.4177 7.88672Z" fill="#EA4335"/>
</svg>
