<svg width="74" height="75" viewBox="0 0 74 75" fill="none" xmlns="http://www.w3.org/2000/svg">
<path fill-rule="evenodd" clip-rule="evenodd" d="M30.074 43.1253L27.761 42.4644C27.185 42.2997 26.8514 41.6993 27.016 41.1233C27.119 40.7629 27.4006 40.4813 27.761 40.3783L30.074 39.7173C30.9054 39.4797 31.5553 38.8299 31.7929 37.9985L32.4539 35.6855C32.6185 35.1094 33.2189 34.7758 33.7949 34.9405C34.1553 35.0435 34.437 35.3251 34.5399 35.6855L35.2009 37.9985C35.4385 38.8299 36.0883 39.4797 36.9197 39.7173L39.2329 40.3783C39.8089 40.543 40.1424 41.1434 39.9779 41.7194C39.8748 42.0797 39.5931 42.3615 39.2329 42.4644L36.9197 43.1253C36.0883 43.3629 35.4385 44.0128 35.2009 44.8442L34.5399 47.1573C34.3754 47.7334 33.7749 48.0668 33.1988 47.9023C32.8385 47.7993 32.5569 47.5176 32.4539 47.1573L31.7929 44.8442C31.5735 44.0768 31.003 43.4641 30.2626 43.1874L30.074 43.1253Z" fill="#181818" fill-opacity="0.1" stroke="#171717" stroke-width="1.05" stroke-linejoin="round"/>
<path fill-rule="evenodd" clip-rule="evenodd" d="M40.073 34.5647L38.6908 34.1697C38.3466 34.0713 38.1472 33.7125 38.2456 33.3682C38.3071 33.1529 38.4754 32.9846 38.6908 32.9231L40.073 32.5281C40.5698 32.3861 40.9581 31.9977 41.1001 31.501L41.4951 30.1188C41.5935 29.7745 41.9523 29.5752 42.2965 29.6736C42.5118 29.7351 42.6801 29.9034 42.7417 30.1188L43.1367 31.501C43.2786 31.9977 43.667 32.3861 44.1638 32.5281L45.546 32.9231C45.8903 33.0215 46.0896 33.3803 45.9912 33.7245C45.9297 33.9398 45.7614 34.1081 45.546 34.1697L44.1638 34.5647C43.667 34.7066 43.2786 35.0949 43.1367 35.5918L42.7417 36.974C42.6433 37.3182 42.2845 37.5176 41.9403 37.4192C41.7249 37.3577 41.5566 37.1894 41.4951 36.974L41.1001 35.5918C40.9691 35.1331 40.6281 34.767 40.1856 34.6017L40.073 34.5647Z" fill="#181818" fill-opacity="0.1" stroke="#171717" stroke-width="1.05" stroke-linejoin="round"/>
<path opacity="0.1" d="M37.1705 63.0359C51.378 63.0359 62.8955 51.5185 62.8955 37.3109C62.8955 23.1034 51.378 11.5859 37.1705 11.5859C22.9629 11.5859 11.4455 23.1034 11.4455 37.3109C11.4455 51.5185 22.9629 63.0359 37.1705 63.0359Z" stroke="black" stroke-width="1.05"/>
<path opacity="0.05" d="M37.1705 68.2859C54.2775 68.2859 68.1455 54.418 68.1455 37.3109C68.1455 20.2039 54.2775 6.33594 37.1705 6.33594C20.0634 6.33594 6.19547 20.2039 6.19547 37.3109C6.19547 54.418 20.0634 68.2859 37.1705 68.2859Z" stroke="black" stroke-width="1.05"/>
<path opacity="0.02" d="M37.1705 73.5359C57.177 73.5359 73.3955 57.3175 73.3955 37.3109C73.3955 17.3044 57.177 1.08594 37.1705 1.08594C17.1639 1.08594 0.945465 17.3044 0.945465 37.3109C0.945465 57.3175 17.1639 73.5359 37.1705 73.5359Z" stroke="black" stroke-width="1.05"/>
</svg>
