<svg class="text-primary absolute h-[320px] sm:h-[560px] top-[-160px] sm:top-[-225px]" height="560px" version="1.1" viewBox="0 0 560 560" width="560px" xmlns="http://www.w3.org/2000/svg"><g fill="none" fill-rule="evenodd" id="hdrm-illustration-power" stroke="none" stroke-width="1"><line id="Path-7" stroke="#FF7B00" stroke-width="2" x1="359" x2="286" y1="156" y2="156"></line><line id="Path-7" stroke="#FF7B00" stroke-width="2" x1="355" x2="344" y1="154" y2="154"></line><line id="Path-7" stroke="#FF7B00" stroke-width="2" x1="364" x2="328" y1="160" y2="160"></line><line id="Path-7" stroke="#FF7B00" stroke-width="2" x1="396" x2="388" y1="160" y2="160"></line><line id="Path-7" stroke="#FF7B00" stroke-width="2" x1="254" x2="180" y1="160" y2="160"></line><line id="Path-7" stroke="#FF7B00" stroke-width="2" x1="368" x2="326" y1="164" y2="164"></line><line id="Path-7" stroke="#FF7B00" stroke-width="2" x1="372" x2="324" y1="168" y2="168"></line><line id="Path-7" stroke="#FF7B00" stroke-width="2" x1="404" x2="388" y1="168" y2="168"></line><line id="Path-7" stroke="#FF7B00" stroke-width="2" x1="372" x2="324" y1="172" y2="172"></line><line id="Path-7" stroke="#FF7B00" stroke-width="2" x1="336" x2="322" y1="176" y2="176"></line><line id="Path-7" stroke="#FF7B00" stroke-width="2" x1="332" x2="326" y1="180" y2="180"></line><line id="Path-7" stroke="#FF7B00" stroke-width="2" x1="352" x2="342" y1="174" y2="174"></line><line id="Path-7" stroke="#FF7B00" stroke-width="2" x1="372" x2="364" y1="174" y2="174"></line><line id="Path-7" stroke="#FF7B00" stroke-width="2" x1="372" x2="330" y1="170" y2="170"></line><line id="Path-7" stroke="#FF7B00" stroke-width="2" x1="370" x2="332" y1="166" y2="166"></line><line id="Path-7" stroke="#FF7B00" stroke-width="2" x1="366" x2="334" y1="162" y2="162"></line><line id="Path-7" stroke="#FF7B00" stroke-width="2" x1="362" x2="336" y1="158" y2="158"></line><line id="Path-7" stroke="#FF7B00" stroke-width="2" x1="312" x2="258" y1="180" y2="180"></line><line id="Path-7" stroke="#FF7B00" stroke-width="2" x1="310" x2="250" y1="176" y2="176"></line><line id="Path-7" stroke="#FF7B00" stroke-width="2" x1="190" x2="168" y1="176" y2="176"></line><line id="Path-7" stroke="#FF7B00" stroke-width="2" x1="300" x2="276" y1="172" y2="172"></line><line id="Path-7" stroke="#FF7B00" stroke-width="2" x1="252" x2="236" y1="172" y2="172"></line><line id="Path-7" stroke="#FF7B00" stroke-width="2" x1="242" x2="210" y1="164" y2="164"></line><line id="Path-7" stroke="#FF7B00" stroke-width="2" x1="194" x2="180" y1="164" y2="164"></line><line id="Path-7" stroke="#FF7B00" stroke-width="2" x1="194" x2="168" y1="172" y2="172"></line><line id="Path-7" stroke="#FF7B00" stroke-width="2" x1="228" x2="192" y1="156" y2="156"></line><line id="Path-7" stroke="#FF7B00" stroke-width="2" x1="286" x2="214" y1="168" y2="168"></line><line id="Path-7" stroke="#FF7B00" stroke-width="2" x1="196" x2="168" y1="168" y2="168"></line><line id="Path-7" stroke="#FF7B00" stroke-width="2" x1="365" x2="268" y1="184" y2="184"></line><line id="Path-7" stroke="#FF7B00" stroke-width="2" x1="408" x2="388" y1="184" y2="184"></line><line id="Path-7" stroke="#FF7B00" stroke-width="2" x1="322" x2="272" y1="188" y2="188"></line><line id="Path-7" stroke="#FF7B00" stroke-width="2" x1="358" x2="272" y1="192" y2="192"></line><line id="Path-7" stroke="#FF7B00" stroke-width="2" x1="284" x2="272" y1="194" y2="194"></line><line id="Path-7" stroke="#FF7B00" stroke-width="2" x1="286" x2="270" y1="198" y2="198"></line><line id="Path-7" stroke="#FF7B00" stroke-width="2" x1="292" x2="268" y1="202" y2="202"></line><line id="Path-7" stroke="#FF7B00" stroke-width="2" x1="294" x2="266" y1="206" y2="206"></line><line id="Path-7" stroke="#FF7B00" stroke-width="2" x1="346" x2="338" y1="230" y2="230"></line><line id="Path-7" stroke="#FF7B00" stroke-width="2" x1="388" x2="354" y1="236" y2="236"></line><line id="Path-7" stroke="#FF7B00" stroke-width="2" x1="346" x2="332" y1="226" y2="226"></line><line id="Path-7" stroke="#FF7B00" stroke-width="2" x1="404" x2="392" y1="192" y2="192"></line><line id="Path-7" stroke="#FF7B00" stroke-width="2" x1="324" x2="270" y1="196" y2="196"></line><line id="Path-7" stroke="#FF7B00" stroke-width="2" x1="356" x2="268" y1="200" y2="200"></line><line id="Path-7" stroke="#FF7B00" stroke-width="2" x1="404" x2="390" y1="200" y2="200"></line><line id="Path-7" stroke="#FF7B00" stroke-width="2" x1="330" x2="266" y1="204" y2="204"></line><line id="Path-7" stroke="#FF7B00" stroke-width="2" x1="348" x2="264" y1="208" y2="208"></line><line id="Path-7" stroke="#FF7B00" stroke-width="2" x1="400" x2="384" y1="208" y2="208"></line><line id="Path-7" stroke="#FF7B00" stroke-width="2" x1="350" x2="262" y1="212" y2="212"></line><line id="Path-7" stroke="#FF7B00" stroke-width="2" x1="364" x2="260" y1="216" y2="216"></line><line id="Path-7" stroke="#FF7B00" stroke-width="2" x1="396" x2="378" y1="216" y2="216"></line><line id="Path-7" stroke="#FF7B00" stroke-width="2" x1="396" x2="388" y1="220" y2="220"></line><line id="Path-7" stroke="#FF7B00" stroke-width="2" x1="380" x2="374" y1="220" y2="220"></line><line id="Path-7" stroke="#FF7B00" stroke-width="2" x1="400" x2="394" y1="212" y2="212"></line><line id="Path-7" stroke="#FF7B00" stroke-width="2" x1="402" x2="398" y1="204" y2="204"></line><line id="Path-7" stroke="#FF7B00" stroke-width="2" x1="404" x2="402" y1="196" y2="196"></line><line id="Path-7" stroke="#FF7B00" stroke-width="2" x1="406" x2="402" y1="188" y2="188"></line><line id="Path-7" stroke="#FF7B00" stroke-width="2" x1="406" x2="396" y1="180" y2="180"></line><line id="Path-7" stroke="#FF7B00" stroke-width="2" x1="404" x2="390" y1="172" y2="172"></line><line id="Path-7" stroke="#FF7B00" stroke-width="2" x1="350" x2="256" y1="220" y2="220"></line><line id="Path-7" stroke="#FF7B00" stroke-width="2" x1="394" x2="254" y1="224" y2="224"></line><line id="Path-7" stroke="#FF7B00" stroke-width="2" x1="346" x2="252" y1="228" y2="228"></line><line id="Path-7" stroke="#FF7B00" stroke-width="2" x1="326" x2="246" y1="232" y2="232"></line><line id="Path-7" stroke="#FF7B00" stroke-width="2" x1="324" x2="148" y1="236" y2="236"></line><line id="Path-7" stroke="#FF7B00" stroke-width="2" x1="320" x2="192" y1="240" y2="240"></line><line id="Path-7" stroke="#FF7B00" stroke-width="2" x1="316" x2="236" y1="244" y2="244"></line><line id="Path-7" stroke="#FF7B00" stroke-width="2" x1="312" x2="234" y1="248" y2="248"></line><line id="Path-7" stroke="#FF7B00" stroke-width="2" x1="252" x2="232" y1="250" y2="250"></line><line id="Path-7" stroke="#FF7B00" stroke-width="2" x1="262" x2="228" y1="254" y2="254"></line><line id="Path-7" stroke="#FF7B00" stroke-width="2" x1="270" x2="226" y1="258" y2="258"></line><line id="Path-7" stroke="#FF7B00" stroke-width="2" x1="278" x2="224" y1="262" y2="262"></line><line id="Path-7" stroke="#FF7B00" stroke-width="2" x1="288" x2="222" y1="266" y2="266"></line><line id="Path-7" stroke="#FF7B00" stroke-width="2" x1="294" x2="222" y1="270" y2="270"></line><line id="Path-7" stroke="#FF7B00" stroke-width="2" x1="294" x2="220" y1="274" y2="274"></line><line id="Path-7" stroke="#FF7B00" stroke-width="2" x1="292" x2="220" y1="278" y2="278"></line><line id="Path-7" stroke="#FF7B00" stroke-width="2" x1="288" x2="220" y1="282" y2="282"></line><line id="Path-7" stroke="#FF7B00" stroke-width="2" x1="284" x2="224" y1="286" y2="286"></line><line id="Path-7" stroke="#FF7B00" stroke-width="2" x1="282" x2="226" y1="290" y2="290"></line><line id="Path-7" stroke="#FF7B00" stroke-width="2" x1="278" x2="230" y1="294" y2="294"></line><line id="Path-7" stroke="#FF7B00" stroke-width="2" x1="276" x2="252" y1="298" y2="298"></line><line id="Path-7" stroke="#FF7B00" stroke-width="2" x1="274" x2="232" y1="302" y2="302"></line><line id="Path-7" stroke="#FF7B00" stroke-width="2" x1="258" x2="216" y1="306" y2="306"></line><line id="Path-7" stroke="#FF7B00" stroke-width="2" x1="252" x2="216" y1="310" y2="310"></line><line id="Path-7" stroke="#FF7B00" stroke-width="2" x1="248" x2="222" y1="314" y2="314"></line><line id="Path-7" stroke="#FF7B00" stroke-width="2" x1="244" x2="228" y1="318" y2="318"></line><line id="Path-7" stroke="#FF7B00" stroke-width="2" x1="240" x2="234" y1="322" y2="322"></line><line id="Path-7" stroke="#FF7B00" stroke-width="2" x1="308" x2="230" y1="252" y2="252"></line><line id="Path-7" stroke="#FF7B00" stroke-width="2" x1="304" x2="228" y1="256" y2="256"></line><line id="Path-7" stroke="#FF7B00" stroke-width="2" x1="300" x2="226" y1="260" y2="260"></line><line id="Path-7" stroke="#FF7B00" stroke-width="2" x1="296" x2="224" y1="264" y2="264"></line><line id="Path-7" stroke="#FF7B00" stroke-width="2" x1="292" x2="220" y1="268" y2="268"></line><line id="Path-7" stroke="#FF7B00" stroke-width="2" x1="298" x2="218" y1="272" y2="272"></line><line id="Path-7" stroke="#FF7B00" stroke-width="2" x1="294" x2="216" y1="276" y2="276"></line><line id="Path-7" stroke="#FF7B00" stroke-width="2" x1="286" x2="214" y1="284" y2="284"></line><line id="Path-7" stroke="#FF7B00" stroke-width="2" x1="280" x2="214" y1="292" y2="292"></line><line id="Path-7" stroke="#FF7B00" stroke-width="2" x1="330" x2="130" y1="300" y2="300"></line><line id="Path-7" stroke="#FF7B00" stroke-width="2" x1="256" x2="210" y1="308" y2="308"></line><line id="Path-7" stroke="#FF7B00" stroke-width="2" x1="246" x2="210" y1="316" y2="316"></line><line id="Path-7" stroke="#FF7B00" stroke-width="2" x1="240" x2="218" y1="324" y2="324"></line><line id="Path-7" stroke="#FF7B00" stroke-width="2" x1="256" x2="214" y1="332" y2="332"></line><line id="Path-7" stroke="#FF7B00" stroke-width="2" x1="248" x2="238" y1="330" y2="330"></line><line id="Path-7" stroke="#FF7B00" stroke-width="2" x1="254" x2="238" y1="334" y2="334"></line><line id="Path-7" stroke="#FF7B00" stroke-width="2" x1="256" x2="238" y1="338" y2="338"></line><line id="Path-7" stroke="#FF7B00" stroke-width="2" x1="286" x2="272" y1="332" y2="332"></line><line id="Path-7" stroke="#FF7B00" stroke-width="2" x1="304" x2="286" y1="324" y2="324"></line><line id="Path-7" stroke="#FF7B00" stroke-width="2" x1="320" x2="302" y1="316" y2="316"></line><line id="Path-7" stroke="#FF7B00" stroke-width="2" x1="328" x2="314" y1="308" y2="308"></line><line id="Path-7" stroke="#FF7B00" stroke-width="2" x1="330" x2="314" y1="304" y2="304"></line><line id="Path-7" stroke="#FF7B00" stroke-width="2" x1="256" x2="238" y1="342" y2="342"></line><line id="Path-7" stroke="#FF7B00" stroke-width="2" x1="260" x2="236" y1="346" y2="346"></line><line id="Path-7" stroke="#FF7B00" stroke-width="2" x1="256" x2="236" y1="350" y2="350"></line><line id="Path-7" stroke="#FF7B00" stroke-width="2" x1="254" x2="234" y1="354" y2="354"></line><line id="Path-7" stroke="#FF7B00" stroke-width="2" x1="252" x2="234" y1="358" y2="358"></line><line id="Path-7" stroke="#FF7B00" stroke-width="2" x1="248" x2="232" y1="362" y2="362"></line><line id="Path-7" stroke="#FF7B00" stroke-width="2" x1="242" x2="232" y1="366" y2="366"></line><line id="Path-7" stroke="#FF7B00" stroke-width="2" x1="238" x2="232" y1="370" y2="370"></line><line id="Path-7" stroke="#FF7B00" stroke-width="2" x1="238" x2="232" y1="374" y2="374"></line><line id="Path-7" stroke="#FF7B00" stroke-width="2" x1="238" x2="232" y1="378" y2="378"></line><line id="Path-7" stroke="#FF7B00" stroke-width="2" x1="238" x2="234" y1="382" y2="382"></line><line id="Path-7" stroke="#FF7B00" stroke-width="2" x1="270" x2="230" y1="340" y2="340"></line><line id="Path-7" stroke="#FF7B00" stroke-width="2" x1="258" x2="230" y1="348" y2="348"></line><line id="Path-7" stroke="#FF7B00" stroke-width="2" x1="254" x2="228" y1="352" y2="352"></line><line id="Path-7" stroke="#FF7B00" stroke-width="2" x1="254" x2="228" y1="356" y2="356"></line><line id="Path-7" stroke="#FF7B00" stroke-width="2" x1="250" x2="228" y1="360" y2="360"></line><line id="Path-7" stroke="#FF7B00" stroke-width="2" x1="244" x2="226" y1="364" y2="364"></line><line id="Path-7" stroke="#FF7B00" stroke-width="2" x1="240" x2="226" y1="368" y2="368"></line><line id="Path-7" stroke="#FF7B00" stroke-width="2" x1="238" x2="226" y1="372" y2="372"></line><line id="Path-7" stroke="#FF7B00" stroke-width="2" x1="238" x2="228" y1="376" y2="376"></line><line id="Path-7" stroke="#FF7B00" stroke-width="2" x1="238" x2="230" y1="380" y2="380"></line><line id="Path-7" stroke="#FF7B00" stroke-width="2" x1="238" x2="200" y1="384" y2="384"></line><line id="Path-7" stroke="#FF7B00" stroke-width="2" x1="262" x2="230" y1="344" y2="344"></line><line id="Path-7" stroke="#FF7B00" stroke-width="2" x1="250" x2="200" y1="312" y2="312"></line><line id="Path-7" stroke="#FF7B00" stroke-width="2" x1="242" x2="194" y1="320" y2="320"></line><line id="Path-7" stroke="#FF7B00" stroke-width="2" x1="234" x2="150" y1="328" y2="328"></line><line id="Path-7" stroke="#FF7B00" stroke-width="2" x1="226" x2="182" y1="336" y2="336"></line><line id="Path-7" stroke="#FF7B00" stroke-width="2" x1="218" x2="202" y1="340" y2="340"></line><line id="Path-7" stroke="#FF7B00" stroke-width="2" x1="214" x2="162" y1="344" y2="344"></line><line id="Path-7" stroke="#FF7B00" stroke-width="2" x1="208" x2="188" y1="348" y2="348"></line><line id="Path-7" stroke="#FF7B00" stroke-width="2" x1="202" x2="154" y1="352" y2="352"></line><line id="Path-7" stroke="#FF7B00" stroke-width="2" x1="194" x2="178" y1="356" y2="356"></line><line id="Path-7" stroke="#FF7B00" stroke-width="2" x1="184" x2="146" y1="360" y2="360"></line><line id="Path-7" stroke="#FF7B00" stroke-width="2" x1="178" x2="162" y1="364" y2="364"></line><line id="Path-7" stroke="#FF7B00" stroke-width="2" x1="164" x2="150" y1="372" y2="372"></line><line id="Path-7" stroke="#FF7B00" stroke-width="2" x1="150" x2="138" y1="380" y2="380"></line><line id="Path-7" stroke="#FF7B00" stroke-width="2" x1="138" x2="130" y1="388" y2="388"></line><line id="Path-7" stroke="#FF7B00" stroke-width="2" x1="172" x2="138" y1="368" y2="368"></line><line id="Path-7" stroke="#FF7B00" stroke-width="2" x1="158" x2="128" y1="376" y2="376"></line><line id="Path-7" stroke="#FF7B00" stroke-width="2" x1="144" x2="102" y1="384" y2="384"></line><line id="Path-7" stroke="#FF7B00" stroke-width="2" x1="126" x2="70" y1="380" y2="380"></line><line id="Path-7" stroke="#FF7B00" stroke-width="2" x1="124" x2="110" y1="382" y2="382"></line><line id="Path-7" stroke="#FF7B00" stroke-width="2" x1="124" x2="110" y1="386" y2="386"></line><line id="Path-7" stroke="#FF7B00" stroke-width="2" x1="126" x2="110" y1="390" y2="390"></line><line id="Path-7" stroke="#FF7B00" stroke-width="2" x1="128" x2="110" y1="394" y2="394"></line><line id="Path-7" stroke="#FF7B00" stroke-width="2" x1="128" x2="110" y1="398" y2="398"></line><line id="Path-7" stroke="#FF7B00" stroke-width="2" x1="128" x2="110" y1="402" y2="402"></line><line id="Path-7" stroke="#FF7B00" stroke-width="2" x1="126" x2="110" y1="406" y2="406"></line><line id="Path-7" stroke="#FF7B00" stroke-width="2" x1="122" x2="110" y1="410" y2="410"></line><line id="Path-7" stroke="#FF7B00" stroke-width="2" x1="118" x2="110" y1="414" y2="414"></line><line id="Path-7" stroke="#FF7B00" stroke-width="2" x1="118" x2="110" y1="418" y2="418"></line><line id="Path-7" stroke="#FF7B00" stroke-width="2" x1="116" x2="110" y1="422" y2="422"></line><line id="Path-7" stroke="#FF7B00" stroke-width="2" x1="116" x2="110" y1="426" y2="426"></line><line id="Path-7" stroke="#FF7B00" stroke-width="2" x1="116" x2="112" y1="430" y2="430"></line><line id="Path-7" stroke="#FF7B00" stroke-width="2" x1="116" x2="112" y1="434" y2="434"></line><line id="Path-7" stroke="#FF7B00" stroke-width="2" x1="126" x2="102" y1="388" y2="388"></line><line id="Path-7" stroke="#FF7B00" stroke-width="2" x1="130" x2="102" y1="396" y2="396"></line><line id="Path-7" stroke="#FF7B00" stroke-width="2" x1="128" x2="102" y1="400" y2="400"></line><line id="Path-7" stroke="#FF7B00" stroke-width="2" x1="126" x2="102" y1="404" y2="404"></line><line id="Path-7" stroke="#FF7B00" stroke-width="2" x1="122" x2="102" y1="408" y2="408"></line><line id="Path-7" stroke="#FF7B00" stroke-width="2" x1="120" x2="102" y1="412" y2="412"></line><line id="Path-7" stroke="#FF7B00" stroke-width="2" x1="118" x2="102" y1="416" y2="416"></line><line id="Path-7" stroke="#FF7B00" stroke-width="2" x1="116" x2="102" y1="420" y2="420"></line><line id="Path-7" stroke="#FF7B00" stroke-width="2" x1="116" x2="104" y1="424" y2="424"></line><line id="Path-7" stroke="#FF7B00" stroke-width="2" x1="116" x2="106" y1="428" y2="428"></line><line id="Path-7" stroke="#FF7B00" stroke-width="2" x1="116" x2="108" y1="432" y2="432"></line><line id="Path-7" stroke="#FF7B00" stroke-width="2" x1="134" x2="102" y1="392" y2="392"></line><line id="Path-7" stroke="#FF7B00" stroke-width="2" x1="276" x2="230" y1="336" y2="336"></line><line id="Path-7" stroke="#FF7B00" stroke-width="2" x1="294" x2="258" y1="328" y2="328"></line><line id="Path-7" stroke="#FF7B00" stroke-width="2" x1="310" x2="270" y1="320" y2="320"></line><line id="Path-7" stroke="#FF7B00" stroke-width="2" x1="326" x2="276" y1="312" y2="312"></line><line id="Path-7" stroke="#FF7B00" stroke-width="2" x1="310" x2="214" y1="280" y2="280"></line><line id="Path-7" stroke="#FF7B00" stroke-width="2" x1="322" x2="214" y1="288" y2="288"></line><line id="Path-7" stroke="#FF7B00" stroke-width="2" x1="328" x2="164" y1="296" y2="296"></line><line id="Path-7" stroke="#FF7B00" stroke-width="2" x1="284" x2="206" y1="304" y2="304"></line><line id="Path-7" stroke="#FF7B00" stroke-width="2" x1="388" x2="374" y1="240" y2="240"></line><line id="Path-7" stroke="#FF7B00" stroke-width="2" x1="390" x2="342" y1="232" y2="232"></line><line id="Path-7" stroke="#FF7B00" stroke-width="2" x1="372" x2="342" y1="176" y2="176"></line><line id="Path-7" stroke="#FF7B00" stroke-width="2" x1="408" x2="386" y1="176" y2="176"></line><line id="Path-7" stroke="#FF7B00" stroke-width="2" x1="350" x2="344" y1="180" y2="180"></line><line id="Path-7" stroke="#FF7B00" stroke-width="2" x1="368" x2="364" y1="180" y2="180"></line><line id="Path-7" stroke="#FF7B00" stroke-width="2" x1="363" x2="358" y1="188" y2="188"></line><line id="Path-7" stroke="#FF7B00" stroke-width="2" x1="362" x2="356" y1="186" y2="186"></line><line id="Path-7" stroke="#FF7B00" stroke-width="2" x1="362" x2="360" y1="192" y2="192"></line><line id="Path-7" stroke="#FF7B00" stroke-width="2" x1="363" x2="354" y1="196" y2="196"></line><line id="Path-7" stroke="#FF7B00" stroke-width="2" x1="353" x2="344" y1="204" y2="204"></line></g></svg>